<svg xmlns="http://www.w3.org/2000/svg" viewBox="0 0 410 404" fill="none" aria-hidden="true">
  <path d="M399.641 59.525L215.643 388.545c-3.81 6.812-13.613 6.838-17.46.047L9.936 59.521c-4.157-7.289 2.079-16.233 10.2-14.64l184.18 36.119a10 10 0 003.84 0l180.683-36.112c8.11-1.622 14.363 7.315 10.202 14.637z" fill="#41D1FF"/>
  <path d="M292.965.025L156.778 26.722a5 5 0 00-4.043 4.194L144.35 94.88a5 5 0 006.111 5.583l37.915-8.209a5 5 0 015.94 5.58l-11.26 55.15a5 5 0 006.338 5.756l23.43-6.987a5 5 0 016.392 5.914l-17.89 86.253c-1.12 5.4 6.073 8.345 9.037 3.698l1.98-3.106 110.99-221.545c1.86-3.714-1.347-7.918-5.44-7.12l-39.021 7.53a5 5 0 01-5.764-5.861l25.455-124.35a5 5 0 00-5.842-5.951z" fill="#BD34FE"/>
</svg>
