<svg xmlns="http://www.w3.org/2000/svg" viewBox="0 0 240 240" role="img" aria-label="African panther placeholder">
  <rect width="240" height="240" fill="#343232"/>
  <g fill="#0d0d0d">
    <path d="M55 92c8-26 35-42 65-42 27 0 50 12 64 34l16 4c6 2 8 9 4 14l-8 10c2 8 2 16-1 23-8 24-36 41-73 41-44 0-72-24-72-56 0-8 2-15 5-22z"/>
    <path d="M88 92c5-7 13-11 22-11 10 0 19 5 24 13 5-8 14-13 24-13 9 0 17 4 22 11-8-3-16 0-21 7-6-6-14-9-23-9-9 0-18 3-24 10-5-7-13-10-24-8z"/>
    <ellipse cx="96" cy="118" rx="6" ry="5" fill="#2a2a2a"/>
    <ellipse cx="144" cy="118" rx="6" ry="5" fill="#2a2a2a"/>
    <path d="M118 133h4l4 4-6 7-6-7z" fill="#1b1b1b"/>
    <path d="M96 149c8 8 16 12 24 12s16-4 24-12c-5 13-14 20-24 20s-19-7-24-20z" fill="#141414"/>
    <path d="M62 98l-12-8-7 18 13-4z"/>
    <path d="M178 98l12-8 7 18-13-4z"/>
  </g>
</svg>
